# xmcd
#
# Track frame offsets:
#	150
#	19017
#	31677
#	40657
#	63052
#	76027
#	94980
#	107250
#	119322
#	134447
#	157452
#	175430
#
# Disc length: 2544 seconds
#
# Revision: 1
# Processed by: cddbd v1.5.1PL0 Copyright (c) Steve Scherf et al.
# Submitted via: CDex 1.50Beta5
#
DISCID=8e09ee0c
DTITLE=ベートーベン - クラシック・ホーム・コンサート
DYEAR=1900
DGENRE=Classical
TTITLE0=ショパン/別れの曲
TTITLE1=ベートーベン/エリーゼのために
TTITLE2=モーツアルト/トルコ行進曲
TTITLE3=ベートーベン/月光
TTITLE4=シューマン/トロイメライ
TTITLE5=リスト/愛の夢
TTITLE6=ドビッシー/亜麻色の髪の乙女
TTITLE7=サテイ/ジムノペデイー
TTITLE8=ドビッシー/アラベスク
TTITLE9=サテイ/あなたが欲しい
TTITLE10=ランゲ/花の歌
TTITLE11=ショパン/雨だれ
EXTD=
EXTT0=
EXTT1=
EXTT2=
EXTT3=
EXTT4=
EXTT5=
EXTT6=
EXTT7=
EXTT8=
EXTT9=
EXTT10=
EXTT11=
PLAYORDER=
